<svg xmlns="http://www.w3.org/2000/svg" viewBox="0 0 500 500"><g id="freepik--background-complete--inject-382"><polygon points="47.48 231.88 98.11 231.65 148.74 231.57 250 231.42 351.26 231.57 401.89 231.65 452.52 231.88 401.89 232.1 351.26 232.18 250 232.33 148.74 232.18 98.11 232.1 47.48 231.88" style="fill:#ebebeb"></polygon><polygon points="47.48 200.16 98.11 199.93 148.74 199.85 250 199.7 351.26 199.85 401.89 199.93 452.52 200.16 401.89 200.38 351.26 200.46 250 200.62 148.74 200.46 98.11 200.38 47.48 200.16" style="fill:#ebebeb"></polygon><polygon points="47.48 168.44 98.11 168.22 148.74 168.13 250 167.98 351.26 168.13 401.89 168.21 452.52 168.44 401.89 168.66 351.26 168.74 250 168.9 148.74 168.74 98.11 168.66 47.48 168.44" style="fill:#ebebeb"></polygon><polygon points="47.48 136.72 98.11 136.5 148.74 136.41 250 136.26 351.26 136.41 401.89 136.5 452.52 136.72 401.89 136.94 351.26 137.03 250 137.18 148.74 137.02 98.11 136.94 47.48 136.72" style="fill:#ebebeb"></polygon><polygon points="47.48 105 98.11 104.78 148.74 104.7 250 104.54 351.26 104.69 401.89 104.78 452.52 105 401.89 105.22 351.26 105.31 250 105.46 148.74 105.31 98.11 105.22 47.48 105" style="fill:#ebebeb"></polygon><polygon points="47.48 73.28 98.11 73.06 148.74 72.98 250 72.82 351.26 72.98 401.89 73.06 452.52 73.28 401.89 73.51 351.26 73.59 250 73.74 148.74 73.59 98.11 73.5 47.48 73.28" style="fill:#ebebeb"></polygon><polygon points="47.48 263.62 98.11 263.4 148.74 263.32 250 263.17 351.26 263.32 401.89 263.4 452.52 263.62 401.89 263.85 351.26 263.93 250 264.08 148.74 263.93 98.11 263.85 47.48 263.62" style="fill:#ebebeb"></polygon><polygon points="47.48 295.37 98.11 295.15 148.74 295.07 250 294.91 351.26 295.06 401.89 295.15 452.52 295.37 401.89 295.6 351.26 295.68 250 295.83 148.74 295.67 98.11 295.59 47.48 295.37" style="fill:#ebebeb"></polygon><polygon points="47.48 327.12 98.11 326.89 148.74 326.81 250 326.66 351.26 326.81 401.89 326.89 452.52 327.12 401.89 327.34 351.26 327.42 250 327.57 148.74 327.42 98.11 327.34 47.48 327.12" style="fill:#ebebeb"></polygon><polygon points="47.48 358.86 98.11 358.64 148.74 358.56 250 358.41 351.26 358.56 401.89 358.64 452.52 358.86 401.89 359.09 351.26 359.17 250 359.32 148.74 359.17 98.11 359.09 47.48 358.86" style="fill:#ebebeb"></polygon><rect x="47.48" y="358.86" width="405.03" height="31.75" style="fill:#dbdbdb"></rect><polygon points="284.58 38.57 284.83 75.36 284.92 102.96 285.08 278.42 284.92 333.63 284.83 361.24 284.58 388.84 284.34 361.24 284.25 333.63 284.08 278.42 284.25 102.96 284.34 75.36 284.58 38.57" style="fill:#ebebeb"></polygon><polygon points="250 38.57 250.24 75.36 250.33 102.96 250.5 278.42 250.33 333.63 250.25 361.24 250 388.84 249.75 361.24 249.67 333.63 249.5 278.42 249.67 102.96 249.76 75.36 250 38.57" style="fill:#ebebeb"></polygon><polygon points="215.42 38.57 215.66 75.36 215.75 102.96 215.91 278.42 215.75 333.63 215.66 361.24 215.42 388.84 215.17 361.24 215.08 333.63 214.92 278.42 215.08 102.96 215.17 75.36 215.42 38.57" style="fill:#ebebeb"></polygon><polygon points="180.83 38.57 181.07 75.36 181.16 102.96 181.33 278.42 181.16 333.63 181.08 361.24 180.83 388.84 180.59 361.24 180.5 333.63 180.33 278.42 180.5 102.96 180.59 75.36 180.83 38.57" style="fill:#ebebeb"></polygon><polygon points="388.34 38.57 388.58 75.36 388.67 102.96 388.84 278.42 388.67 333.63 388.58 361.24 388.34 388.84 388.09 361.24 388 333.63 387.84 278.42 388.01 102.96 388.09 75.36 388.34 38.57" style="fill:#ebebeb"></polygon><polygon points="353.75 38.57 354 75.36 354.08 102.96 354.25 278.42 354.08 333.63 354 361.24 353.75 388.84 353.51 361.24 353.42 333.63 353.25 278.42 353.42 102.96 353.51 75.36 353.75 38.57" style="fill:#ebebeb"></polygon><polygon points="319.17 38.57 319.41 75.36 319.5 102.96 319.67 278.42 319.5 333.63 319.41 361.24 319.17 388.84 318.92 361.24 318.84 333.63 318.67 278.42 318.84 102.96 318.93 75.36 319.17 38.57" style="fill:#ebebeb"></polygon><polygon points="422.92 38.57 423.16 75.36 423.25 102.96 423.42 278.42 423.25 333.63 423.17 361.24 422.92 388.84 422.68 361.24 422.59 333.63 422.42 278.42 422.59 102.96 422.68 75.36 422.92 38.57" style="fill:#ebebeb"></polygon><polygon points="388.34 38.57 388.58 75.36 388.67 102.96 388.84 278.42 388.67 333.63 388.58 361.24 388.34 388.84 388.09 361.24 388 333.63 387.84 278.42 388.01 102.96 388.09 75.36 388.34 38.57" style="fill:#ebebeb"></polygon><polygon points="146.25 38.57 146.49 75.36 146.58 102.96 146.75 278.42 146.58 333.63 146.49 361.24 146.25 388.84 146 361.24 145.91 333.63 145.75 278.42 145.92 102.96 146 75.36 146.25 38.57" style="fill:#ebebeb"></polygon><polygon points="111.66 38.57 111.91 75.36 111.99 102.96 112.16 278.42 112 333.63 111.91 361.24 111.66 388.84 111.42 361.24 111.33 333.63 111.16 278.42 111.33 102.96 111.42 75.36 111.66 38.57" style="fill:#ebebeb"></polygon><polygon points="77.08 38.57 77.32 75.36 77.41 102.96 77.58 278.42 77.41 333.63 77.32 361.24 77.08 388.84 76.83 361.24 76.75 333.63 76.58 278.42 76.75 102.96 76.83 75.36 77.08 38.57" style="fill:#ebebeb"></polygon><polygon points="52.72 160.58 215.4 160.58 220.63 38.57 47.48 38.57 52.72 160.58" style="fill:#ebebeb"></polygon><path d="M130.6,149.37H64.81l-4.29-99H130.6Zm-64.83-1H129.6v-97h-68Z" style="fill:#dbdbdb"></path><path d="M124.66,116.61h-6.83V80.89h6.83Zm-5.83-1h4.83V81.89h-4.83Z" style="fill:#dbdbdb"></path><path d="M203.3,149.37H137.51v-99h70.08Zm-64.79-1h63.83l4.2-97h-68Z" style="fill:#dbdbdb"></path><path d="M150.28,116.61h-6.83V80.89h6.83Zm-5.83-1h4.83V81.89h-4.83Z" style="fill:#dbdbdb"></path></g><g id="freepik--Table--inject-382"><path d="M52.59,462.23c126.47-.61,268.35-.62,394.82,0-126.47.61-268.35.61-394.82,0Z" style="fill:#263238"></path></g><g id="freepik--Shelf--inject-382"><rect x="292.52" y="88.26" width="160" height="12.31" style="fill:#FFC727"></rect><rect x="370.14" y="122.83" width="4.75" height="60.04" style="fill:#c7c7c7"></rect><path d="M385.38,180.25H359.66l-1.32,35.88h28.35Zm-18.25,31.67h-2.67V185.38h2.67Zm6.71,0h-2.65V185.38h2.65Zm6.72,0h-2.65V185.38h2.65Z" style="fill:#c7c7c7"></path><polygon points="377.65 128.73 367.68 128.73 366.68 91.55 378.65 91.55 377.65 128.73" style="fill:#263238"></polygon><circle cx="372.67" cy="96.39" r="1.62" style="fill:#FFC727"></circle><rect x="420.41" y="122.83" width="4.75" height="48.32" style="fill:#c7c7c7"></rect><path d="M436.39,185.12c0,10.08-6.57,19.35-13.61,19.35s-13.6-9.27-13.6-19.35S417.23,170,422.78,170,436.39,175,436.39,185.12Z" style="fill:#c7c7c7"></path><polygon points="427.92 128.73 417.95 128.73 416.95 91.55 428.92 91.55 427.92 128.73" style="fill:#263238"></polygon><circle cx="422.93" cy="96.39" r="1.62" style="fill:#FFC727"></circle><path d="M292.43,143.44v59h36.08V122.68H321v20.76Zm5.1,8.2a2.15,2.15,0,1,1,2.15,2.14A2.15,2.15,0,0,1,297.53,151.64Z" style="fill:#c7c7c7"></path><polygon points="319.79 128.73 329.76 128.73 330.76 91.55 318.79 91.55 319.79 128.73" style="fill:#263238"></polygon><circle cx="324.77" cy="96.39" r="1.62" style="fill:#FFC727"></circle><rect x="357.99" y="24.57" width="49.69" height="77.68" transform="translate(319.42 446.25) rotate(-90)" style="fill:#FFC727"></rect><rect x="357.99" y="24.57" width="49.69" height="77.68" transform="translate(319.42 446.25) rotate(-90)" style="opacity:0.2"></rect><path d="M442.27,56.77c-3.87,0-7.46,3.32-11.08,3.32h-9.51v6.64h9.51c3.62,0,7.21,3.33,11.08,3.33,4.58,0,8-2.55,8-6.64S446.85,56.77,442.27,56.77Zm1.05,9.13a2.49,2.49,0,1,1,2.49-2.48A2.49,2.49,0,0,1,443.32,65.9Z" style="fill:#FFC727"></path><g style="opacity:0.2"><path d="M442.27,56.77c-3.87,0-7.46,3.32-11.08,3.32h-9.51v6.64h9.51c3.62,0,7.21,3.33,11.08,3.33,4.58,0,8-2.55,8-6.64S446.85,56.77,442.27,56.77Zm1.05,9.13a2.49,2.49,0,1,1,2.49-2.48A2.49,2.49,0,0,1,443.32,65.9Z"></path></g><path d="M365,64.14s-10.23,19.13-12.22,21.73-6.82,2.39-9.81,2.39H318.48c-3,0-7.82.22-9.81-2.39s-12.22-21.73-12.22-21.73Z" style="fill:#455a64"></path></g><g id="freepik--Character--inject-382"><path d="M199.47,198.29s-2.55-8.77-9.4-10.46-9.19,2.25-13.46,1.52-12.43-4.88-18.11-2.32-6.94,11.31-9.75,13.09-9.47-.1-13.07,5.51c-4.19,6.51-1.23,12.27-2.7,15.87-2.44,6-8.39,9.49-7.47,17.78,1,8.93,7.75,11.06,11.29,15.06,3.39,3.84,1.47,12.26,10.77,16s13.83-1.37,20.13-1.63,13,6.18,20.32,4.19,7.4-8.39,10.09-10.86,7.5-.95,11.18-5.65.6-11.11.94-13.33c.6-3.79,3.71-4.89,4.6-10.28s-4.09-11.06-4.79-13c-1.66-4.73,3.93-11.55.33-16.58C205.81,196.82,199.47,198.29,199.47,198.29Z" style="fill:#263238"></path><path d="M154.53,190.51c-1.57,2.84-2.69,6.44-5.81,8-1.78,1-3.94.93-5.84,1.38-5.2.89-9.67,4.32-10.48,9.71-.47,2.52-.05,5.11.26,7.76.28,2,.13,4.32-1.33,5.91-3.57,4.53-7.27,10-5.82,16-2.07-6.4,2.13-12.37,5.69-17.33.86-1.32.73-2.92.56-4.52-.33-2.58-.82-5.3-.34-8,.87-5.68,5.82-9.59,11.32-10.3,2.55-.46,5.31-.31,7.35-2.13,1.73-1.5,3.21-4.53,4.44-6.46Z" style="fill:#263238"></path><path d="M182.36,273c7.17,1.14,11.22.69,14.48-6.44a15.84,15.84,0,0,1,2-3.31,6.06,6.06,0,0,1,2.18-1.13c2.82-.89,5.77-1.58,7.71-3.87a11,11,0,0,0,2.47-8.13c-.17-2-.62-3.94-1-5.91a48.06,48.06,0,0,1,1.45,5.85,11.3,11.3,0,0,1-2.28,8.74c-2,2.46-5.27,3.36-8.06,4.27-2.1.42-2.79,2.19-3.73,3.92-3.4,7.21-8,8-15.28,6Z" style="fill:#263238"></path><path d="M202.48,284.29c11.11,27,46.34,100.29,69.58,104.37,18.49,3.24,69.91-37.13,83.89-51,6.71-6.66-34-60.78-40.81-53.35-5.29,5.74-37.68,31.1-41.3,31.1-3.37,0-30.24-29.35-48.47-47.27C193.74,237,194.55,265,202.48,284.29Z" style="fill:#ad6359"></path><path d="M344.37,345.92c6.53-2.86,42-18,49.07-24.14s26-25.42,21.81-31.29-10.19-.68-10.19-.68,6.72-9.39,2-14.91-13.82,2.86-13.82,2.86,6.2-10.15,1.06-15.32-12.83,4.79-12.83,4.79,6.09-9,.07-11.5c-7.24-3-16.6,14.91-24.87,21.15-1.88,1.41-40.14,26-40.14,26Z" style="fill:#ad6359"></path><path d="M382.12,266.39c-6.92,13.13-12.22,17.69-24.88,25-.24.15-.09.55.18.42,13.05-6,20.52-10.78,25.35-25.11C383,266,382.44,265.76,382.12,266.39Z" style="fill:#263238"></path><path d="M393.74,276.7c-8.37,13-14.07,18-26.77,26.64-.18.12,0,.44.2.33,13.16-7.42,20.51-12.33,27.16-26.44C394.64,276.59,394.13,276.11,393.74,276.7Z" style="fill:#263238"></path><path d="M404.4,290.23c-9,12-15,17.76-28.43,24.55a.28.28,0,0,0,.22.51c14.34-5.6,21.9-12.7,28.55-24.75C405.19,289.72,405,289.48,404.4,290.23Z" style="fill:#263238"></path><path d="M304.76,301.62s7.73-16.92,12.76-23.61,33-24.7,37.2-18.88c5.47,7.5-8.61,21.08-16.37,26.82,0,0,12.66,17.35,4.66,29.28S304.76,301.62,304.76,301.62Z" style="fill:#ad6359"></path><path d="M355.55,261.68c.05,10.44-10.63,17.33-17.75,23.47a.86.86,0,0,0,.09,1.41c4.82,7.62,9.4,19.78,5.7,28.56a.21.21,0,0,0,.38.2c5.25-8.88,1.72-21.19-4.09-29.2,7.39-6.18,17.8-13.56,15.77-24.44C355.64,261.61,355.55,261.61,355.55,261.68Z" style="fill:#263238"></path><path d="M291.21,302.05l42.24,58s-49.08,35.6-65,31.14S216.22,326.37,200.63,283c-11.69-32.49,1.76-38.45,24.46-16.85s46.13,46.09,48.45,45.71S291.21,302.05,291.21,302.05Z" style="fill:#FFC727"></path><path d="M291.21,302.05l42.24,58s-49.08,35.6-65,31.14S216.22,326.37,200.63,283c-11.69-32.49,1.76-38.45,24.46-16.85s46.13,46.09,48.45,45.71S291.21,302.05,291.21,302.05Z" style="fill:#fff;opacity:0.7000000000000001"></path><path d="M295.46,289.32C295,289.18,273,306,273,306s52.64,67.31,53.18,67.33S349.8,357.9,349.54,357,295.46,289.32,295.46,289.32Z" style="fill:#FFC727"></path><g style="opacity:0.4"><path d="M295.46,289.32C295,289.18,273,306,273,306s52.64,67.31,53.18,67.33S349.8,357.9,349.54,357,295.46,289.32,295.46,289.32Z" style="fill:#fff"></path></g><path d="M433.21,321.54l-3.41,5.14L301.68,241.61l3.41-5.15c11.49-17.29,49.47-12.26,84.84,11.23S444.69,304.25,433.21,321.54Z" style="fill:#37474f"></path><ellipse cx="364.64" cy="285.8" rx="37.57" ry="76.89" transform="matrix(0.55, -0.83, 0.83, 0.55, -75.16, 431.46)" style="fill:#263238"></ellipse><ellipse cx="364.64" cy="285.8" rx="33.63" ry="72.79" transform="translate(-75.16 431.46) rotate(-56.41)" style="opacity:0.1"></ellipse><path d="M248.16,462.23l-15.25-83.46s15.25-13.94,13.69-39c-.85-13.46-25.24-61.65-38.33-78.51-12.28-15.82-38.8-15-55.16,4.88-52.86,64.1-69.18,149.17-76,196.07Z" style="fill:#FFC727"></path><g style="opacity:0.7000000000000001"><path d="M248.16,462.23l-15.25-83.46s15.25-13.94,13.69-39c-.85-13.46-25.24-61.65-38.33-78.51-12.28-15.82-38.8-15-55.16,4.88-52.86,64.1-69.18,149.17-76,196.07Z" style="fill:#fff"></path></g><path d="M170.45,264.81a53.81,53.81,0,0,0,15.23,12.29,43.6,43.6,0,0,0,18.62,5.44,41.52,41.52,0,0,0,9.7-.68l2.38-.52h.07s0,0,.18,0a.69.69,0,0,1,.33.1l.16.14.08.1a3.15,3.15,0,0,1,.2.31c.12.19.22.38.32.57.19.37.38.75.55,1.13.71,1.5,1.34,3,1.95,4.56A183.72,183.72,0,0,1,226.45,307a170,170,0,0,1,4.16,19.35,109,109,0,0,1,1.32,19.78,61,61,0,0,1-3.53,19.53,35,35,0,0,1-11.66,16l.22-.51,4.56,40.44L225.89,462l-5.11-40.37-4.93-40.39,0-.32.26-.19a33.83,33.83,0,0,0,11.23-15.51,59.78,59.78,0,0,0,3.39-19.15c.3-13.08-2-26.13-5.38-38.78a182,182,0,0,0-6.13-18.68c-.6-1.53-1.23-3-1.91-4.52-.17-.36-.35-.73-.53-1.08-.09-.18-.19-.35-.28-.51l-.14-.21v0l.05,0a.44.44,0,0,0,.25.08c.21,0,.09,0,.1,0l-.07,0-2.45.51a40.48,40.48,0,0,1-9.95.56,43.72,43.72,0,0,1-18.85-5.87A54,54,0,0,1,170.45,264.81Z" style="fill:#263238"></path><path d="M186.19,316.18a3.77,3.77,0,1,1-3.77-3.77A3.77,3.77,0,0,1,186.19,316.18Z" style="fill:#263238"></path><path d="M222.26,318.17a3.78,3.78,0,1,1-3.77-3.77A3.77,3.77,0,0,1,222.26,318.17Z" style="fill:#263238"></path><path d="M181.12,344.71a3.78,3.78,0,1,1-3.78-3.77A3.78,3.78,0,0,1,181.12,344.71Z" style="fill:#263238"></path><path d="M169.2,378.77a3.78,3.78,0,1,1-3.78-3.77A3.78,3.78,0,0,1,169.2,378.77Z" style="fill:#263238"></path><path d="M168,412.32a3.77,3.77,0,1,1-3.77-3.78A3.77,3.77,0,0,1,168,412.32Z" style="fill:#263238"></path><path d="M220,347.52a3.78,3.78,0,1,1-3.77-3.77A3.77,3.77,0,0,1,220,347.52Z" style="fill:#263238"></path><path d="M207.81,411.61a3.78,3.78,0,1,1-3.77-3.78A3.77,3.77,0,0,1,207.81,411.61Z" style="fill:#263238"></path><circle cx="166.24" cy="445.6" r="3.77" style="fill:#263238"></circle><path d="M209.85,444.89a3.78,3.78,0,1,1-3.77-3.77A3.77,3.77,0,0,1,209.85,444.89Z" style="fill:#263238"></path><path d="M208.71,380.06a3.78,3.78,0,1,1-3.78-3.77A3.77,3.77,0,0,1,208.71,380.06Z" style="fill:#263238"></path><path d="M217.94,249.56s1.81,23.62-2.49,24.13c-13.21,1.6-28.44-16.23-29.33-19.09-.22-.73.34-19.13.82-33.43.3-9.2.58-16.71.58-16.71l34.38,18.48-3.69,24.84Z" style="fill:#ad6359"></path><path d="M221.9,222.94l-3.69,24.84a50.39,50.39,0,0,1-31.27-26.61c.3-9.2.58-16.71.58-16.71l4.33,2.14Z" style="fill:#263238"></path><path d="M256.57,190c-1,44.06-27.47,48.45-37,48.23-8.63-.2-38-2-41.55-45.9s17.21-57.4,37-58S257.55,146,256.57,190Z" style="fill:#ad6359"></path><path d="M249.37,189.1a26.48,26.48,0,0,1-2.91-.9,5,5,0,0,1-2.79-1.48,1.57,1.57,0,0,1,.18-1.91c1.07-1,2.54-.92,3.9-.55a5.72,5.72,0,0,1,3.38,2.34A1.67,1.67,0,0,1,249.37,189.1Z" style="fill:#263238"></path><path d="M219.34,186.9a30.47,30.47,0,0,0,3-.5,4.85,4.85,0,0,0,3-1.09,1.56,1.56,0,0,0,.08-1.91c-.92-1.16-2.39-1.26-3.78-1.08a5.72,5.72,0,0,0-3.67,1.86A1.67,1.67,0,0,0,219.34,186.9Z" style="fill:#263238"></path><path d="M225.28,196c0-.12-.24.12-.25.25-.11,3-.74,6.41-3.52,7.22-.08,0-.08.18,0,.17C224.86,203.43,225.66,198.89,225.28,196Z" style="fill:#263238"></path><path d="M222.82,192.72c-4.79-.7-5.83,8.93-1.39,9.58S226.84,193.3,222.82,192.72Z" style="fill:#263238"></path><path d="M220.88,193c-.9.46-1.83,1.33-2.86,1.32-1.18,0-2-1.11-2.62-2.17-.07-.11-.16,0-.18.1-.22,1.84.28,3.81,2.23,4.3,1.78.44,3.25-1,3.91-2.86C221.48,193.38,221.24,192.84,220.88,193Z" style="fill:#263238"></path><path d="M242,197.07c0-.11.21.17.2.29-.44,3-.45,6.45,2.13,7.75.08,0,.06.19,0,.17C241,204.43,241.07,199.82,242,197.07Z" style="fill:#263238"></path><path d="M245,194.27c4.84.19,4.1,9.85-.38,9.67S240.94,194.11,245,194.27Z" style="fill:#263238"></path><path d="M247,195.06c.73.57,1.41,1.56,2.32,1.69s1.91-.84,2.66-1.79c.08-.09.15,0,.15.12-.09,1.85-.85,3.73-2.65,3.94s-2.71-1.47-3-3.34C246.36,195.33,246.66,194.83,247,195.06Z" style="fill:#263238"></path><path d="M222.12,219.46c.61.8,1.17,1.87,2.23,2.12a7.85,7.85,0,0,0,3.3-.25.11.11,0,0,1,.11.17,4.06,4.06,0,0,1-4,1,3.18,3.18,0,0,1-1.92-3C221.8,219.37,222,219.34,222.12,219.46Z" style="fill:#263238"></path><path d="M235.65,209.86s.19,4.52,0,6.63c0,.2-.54.24-1.26.21,0,0-.06,0-.08,0a10.06,10.06,0,0,1-9.36-4.67.22.22,0,0,1,.34-.26c2.58,2.3,5.6,3.12,8.88,3.49.21-.57-.57-7.73-.24-7.72,1.16,0,3.35,1,4.68,1.54-.12-9.43-1.75-18.76-1.72-28.15a.29.29,0,0,1,.56-.08c2.4,9.66,2.77,20.5,3.14,30.24C240.64,212.3,236.46,210.3,235.65,209.86Z" style="fill:#263238"></path><path d="M177.49,192.69c7.26,1.58,11.07-13.57,11.07-13.57s14.91,2.11,22.8-18.66c0,0-1.71,9.94-9.06,16.82,0,0,26.68.85,40.8-19.62,0,0-6,10.6-10.66,14,0,0,11.45-1.55,18.07-9.76,0,0,2.85,13.34,5.9,17.34,0,0,5.29-46.16-38-47.17,0,0-26.93-1.92-39.44,17.88S177.49,192.69,177.49,192.69Z" style="fill:#263238"></path><path d="M185,195.89s-8.07-14.72-14.65-12-1.55,23.34,5.44,26.85a7.45,7.45,0,0,0,10.36-2.9Z" style="fill:#ad6359"></path><path d="M171.92,189.77a.1.1,0,0,0-.06.19c4.88,2.63,7,7.66,8.4,12.78-1.31-2.06-3.27-3.32-6-1.79-.14.08,0,.3.11.29a4.58,4.58,0,0,1,4.84,2.14,22.17,22.17,0,0,1,2,4.32c.19.48,1,.32.93-.22l0-.12C182.91,200.86,178.84,191.19,171.92,189.77Z" style="fill:#263238"></path><path d="M180.09,209.26a1.54,1.54,0,1,1-1.32-1.73A1.53,1.53,0,0,1,180.09,209.26Z" style="fill:#fff"></path><path d="M176.17,206a1,1,0,1,1-.83-1.1A1,1,0,0,1,176.17,206Z" style="fill:#fff"></path><path d="M174.34,175.2c-.47-.42-38.6-71.83-41.82-78.37-1.43-2.91,18.69-42.32,44.15-50.46C195,40.5,225.38,51.62,230.8,55c6.45,4,21.13,91.35,21.13,91.35l-43.39,11.25Z" style="fill:#FFC727"></path><path d="M174.34,175.2c-.47-.42-38.6-71.83-41.82-78.37-1.43-2.91,18.69-42.32,44.15-50.46C195,40.5,225.38,51.62,230.8,55c6.45,4,21.13,91.35,21.13,91.35l-43.39,11.25Z" style="fill:#fff;opacity:0.7000000000000001"></path><g style="opacity:0.1"><path d="M179,163.35a10.39,10.39,0,0,1-1.9-3c-.55-1.1-1.11-2.2-1.71-3.28a48.93,48.93,0,0,0-4.13-6.15c-1.2-1.55-2.64-3.28-4.62-3.78a4.42,4.42,0,0,0-2.57.15,4.48,4.48,0,0,0-1.52.74,13.36,13.36,0,0,0-.88,1.21c-.09.12.11.26.19.14a2.56,2.56,0,0,1,1.34-1.29,6.3,6.3,0,0,1,1.49-.33,4.4,4.4,0,0,1,3,.94,18.15,18.15,0,0,1,3.9,4.8l3.58,5.3c1.08,1.6,2,3.71,3.63,4.81C178.93,163.66,179.12,163.48,179,163.35Z"></path><path d="M183.92,163.53q-3.53-6.74-7.09-13.46c-2.4-4.5-4.85-9.16-6.16-14.11,0-.14-.26-.11-.23,0a68.54,68.54,0,0,0,5,14.55,97.79,97.79,0,0,0,8.26,13.13C183.78,163.81,184,163.67,183.92,163.53Z"></path><path d="M197.88,152.62c-2.14-3.78-4.67-7.37-7.16-10.93a44.06,44.06,0,0,0-7.66-8.47.12.12,0,0,0-.15.18c2.81,2.71,4.69,6.18,6.86,9.38,2.38,3.5,4.76,7.05,7.45,10.32A.41.41,0,0,0,197.88,152.62Z"></path><path d="M213.53,114.46a4.43,4.43,0,0,0-6.46,2.25c-1.21,3.07-.37,6.87.29,10a42.25,42.25,0,0,0,3.4,9.75,44.3,44.3,0,0,0,6.53,9.67.12.12,0,0,0,.19-.14,51.33,51.33,0,0,1-7.53-16.6,48.7,48.7,0,0,1-1.49-8.89c-.18-2.51.88-6.72,4.3-5.78,3.21.89,4.33,4.87,6.52,7,.06,0,.13,0,.08-.09C217.16,119.38,216.38,116.12,213.53,114.46Z"></path><path d="M237.92,115.52a22.8,22.8,0,0,0-1.67,14.78,40.76,40.76,0,0,0,2.5,8.07,44.31,44.31,0,0,0,3.79,7.88c.07.1.25,0,.21-.09-.72-2.65-2-5.12-2.81-7.76a54.26,54.26,0,0,1-1.85-8.05,49.17,49.17,0,0,1-.45-7.28,34.69,34.69,0,0,1,.86-7.32A.32.32,0,0,0,237.92,115.52Z"></path><path d="M229.35,133.45a92,92,0,0,0-4.34-12.4.34.34,0,0,0-.63.24c1.34,4.12,2.43,8.34,3.52,12.54s1.87,8.42,3.21,12.49c0,.13.22.06.23-.06A50.23,50.23,0,0,0,229.35,133.45Z"></path></g><path d="M252.42,137c-2.63-1.35-36.35-4.68-49,.88-11.26,4.93-31.93,20.31-37.53,27.12-.92,1.12,5.54,15.49,8.11,17,1.51.89,24.8-14.63,37.42-20.59,10.76-5.08,36.51-4,43-3.39C255.39,158.11,254,137.8,252.42,137Z" style="fill:#FFC727"></path><path d="M252.42,137c-2.63-1.35-36.35-4.68-49,.88-11.26,4.93-31.93,20.31-37.53,27.12-.92,1.12,5.54,15.49,8.11,17,1.51.89,24.8-14.63,37.42-20.59,10.76-5.08,36.51-4,43-3.39C255.39,158.11,254,137.8,252.42,137Z" style="fill:#fff;opacity:0.4"></path><path d="M206.84,277.78s-.09-12.16-1-13.31-14.3-10-19.61-21.75c-1.33-3-9.78,8.54-9.78,8.54a48.27,48.27,0,0,0,14.15,20.67c10.63,9,24.8,9.4,28,7.79,1.05-.52.53-20.9.06-20.05a17,17,0,0,1-4.91,5.8c-.59.46-.14,12.43-.14,12.43Z" style="fill:#FFC727"></path><path d="M206.84,277.78s-.09-12.16-1-13.31-14.3-10-19.61-21.75c-1.33-3-9.78,8.54-9.78,8.54a48.27,48.27,0,0,0,14.15,20.67c10.63,9,24.8,9.4,28,7.79,1.05-.52.53-20.9.06-20.05a17,17,0,0,1-4.91,5.8c-.59.46-.14,12.43-.14,12.43Z" style="fill:#fff;opacity:0.7000000000000001"></path><path d="M154.07,263.64c-23.91,21-95.8,104.91-90.29,131.49,4.1,19.76,26.14,25,44.74,16.06,16.19-7.78,51.63-96.64,61.3-121.6C179,265.83,177.56,243,154.07,263.64Z" style="fill:#ad6359"></path><path d="M154.07,263.64c-23.91,21-95.8,104.91-90.29,131.49,4.1,19.76,26.14,25,44.74,16.06,16.19-7.78,51.63-96.64,61.3-121.6C179,265.83,177.56,243,154.07,263.64Z" style="fill:#FFC727"></path><g style="opacity:0.7000000000000001"><path d="M154.07,263.64c-23.91,21-95.8,104.91-90.29,131.49,4.1,19.76,26.14,25,44.74,16.06,16.19-7.78,51.63-96.64,61.3-121.6C179,265.83,177.56,243,154.07,263.64Z" style="fill:#fff"></path></g><path d="M168,296.55c0-.17-.2-.28-.27-.11-2.49,6.31-5,12.59-7.71,18.82s-5.22,12.53-7.91,18.76q-8,18.63-17.12,36.76c-1.7,3.38-3.45,6.73-5.19,10.1s-3.63,6.73-5.29,10.17c0,.1.1.19.16.1,1.91-2.81,3.6-5.78,5.32-8.71s3.36-5.84,5-8.8c3.22-5.92,6.39-11.88,9.37-17.93s5.92-12.33,8.7-18.57c2.25-5.07,4.44-10.18,6.43-15.36.47-.71.93-1.42,1.37-2.15.9-1.47,1.77-3,2.64-4.45,1.71-2.92,3.21-5.95,4.85-8.9.11-.18-.21-.37-.32-.18-1.72,2.91-3.57,5.73-5.23,8.68-.69,1.23-1.38,2.47-2.06,3.71l0,0C163.33,311.23,165.73,303.91,168,296.55Z" style="fill:#263238"></path><path d="M284.68,359.77c.94-.85,2-3.95,2-3.95l3.1.5s-.25,3.65-1.68,4.42S284.68,359.77,284.68,359.77Z" style="fill:#455a64"></path><path d="M275.28,381.74c-.53-1.16-3.16-3.13-3.16-3.13l1.42-2.8s3.4,1.33,3.71,2.93S275.28,381.74,275.28,381.74Z" style="fill:#455a64"></path><path d="M275.78,352.89c1.63,2.71,3.26,3,3.26,3l-1.33,2.85a6.12,6.12,0,0,1-4.53-3.83Z" style="fill:#455a64"></path><path d="M270.5,365.65l3.85-2.7s-.67,3.06.29,4.41,1.21,1.4,1.21,1.4L274,370.42S270.41,368.8,270.5,365.65Z" style="fill:#455a64"></path><path d="M279.79,371.2s2-2,2.27-3.58l2.62,1.24s-1,2.6-2.45,2.95Z" style="fill:#455a64"></path><path d="M283.2,383.83s2,2,3.58,2.27l-1.24,2.63s-2.6-1-3-2.45Z" style="fill:#455a64"></path><path d="M287,367.64l3.32-.52a7,7,0,0,0,.82,3.56l-2.07,1.63A3.8,3.8,0,0,1,287,367.64Z" style="fill:#455a64"></path><path d="M284,351.29l-2-2.71a6.93,6.93,0,0,0,2.79-2.36l2.4,1.09A3.8,3.8,0,0,1,284,351.29Z" style="fill:#455a64"></path><path d="M82,412.16c-23.24-5.25-16.3-32.66-2.88-42.51,31.49-23.12,81.19-45.42,113.17-54.13,11-3,47.95,46.22,37.75,52.83C211.92,380.08,129.15,422.82,82,412.16Z" style="fill:#ad6359"></path><path d="M177.14,320.6s3.71-1.85,21.69-14.78c12.43-8.95,48.43-22.79,84.58.59,13.85,9,13.61,22.59-2.43,15.84-11.3-4.76-18.72-9-22.84-9.54,0,0,9,16.46,4.24,26.24-2.13,4.36-8.21,16.15-14.26,24.65a43.1,43.1,0,0,1-4.85-2.25,22.85,22.85,0,0,1-21.74,11Z" style="fill:#ad6359"></path><path d="M212.06,299.17c8,.76,24.9,2.64,38.2,9,14.77,7.06,41.33,24.63,36,35.48-3.9,8-14.63,2.14-14.63,2.14s9.44,9.57,4.35,16c-4.65,5.85-12.68.85-12.68.85s4.73,6.79-.82,11.57c-6.69,5.73-15.51-9.45-27.3-9.49C232.54,364.7,212.06,299.17,212.06,299.17Z" style="fill:#ad6359"></path><path d="M240.2,322.53c7.4,1.94,23.08,10.66,31.42,22.91.19.28.08.57-.15.35a160.67,160.67,0,0,0-31.33-23.12A.08.08,0,0,1,240.2,322.53Z" style="fill:#263238"></path><path d="M233.51,337.65c6.22,2.33,22,12,30,24.74.18.28.05.57-.17.34a172.39,172.39,0,0,0-29.9-25C233.36,337.73,233.43,337.62,233.51,337.65Z" style="fill:#263238"></path><path d="M168.86,316l14.06,41.28,21,33.69S86.39,434.62,69.38,404.39C63.64,394.19,64,375.1,85,359.63S168.86,316,168.86,316Z" style="fill:#FFC727"></path><path d="M168.86,316l14.06,41.28,21,33.69S86.39,434.62,69.38,404.39C63.64,394.19,64,375.1,85,359.63S168.86,316,168.86,316Z" style="fill:#fff;opacity:0.7000000000000001"></path><path d="M169.71,316.62c-2.65.9-5.33,1.67-8,2.64s-5.14,1.89-7.69,2.9c-5.12,2-10.2,4.28-15.19,6.61A264.6,264.6,0,0,0,113,342.89c-4,1.2-7.92,2.81-11.87,4.18-.12,0,0,.22.08.18,3.26-1.09,6.59-2.05,9.85-3.18-2.16,1.3-4.32,2.62-6.46,4-2.58,1.64-5,3.47-7.58,5.15-.09.06,0,.21.1.16,2.32-1.42,4.74-2.69,7.12-4s4.82-2.76,7.25-4.11c4.83-2.67,9.69-5.28,14.6-7.79,9.79-5,16.7-8.61,26.8-12.92,2.83-1.21,5.63-2.48,8.46-3.68s5.71-2.55,8.6-3.72C170.27,317,170,316.51,169.71,316.62Z" style="fill:#263238"></path><path d="M90.56,415.4c17.2-.9,34.18-4,51.06-7.27,15.78-3.24,31.59-6.76,46.78-12.18l3-1.11c-15.56,7.54-32.55,11.73-49.41,15.25-16.94,3.21-34.18,6-51.46,5.31Z" style="fill:#263238"></path><path d="M176,311c-.41-.24-25.54,11.43-25.54,11.43s37,77.05,37.47,77.18,26.42-10,26.36-10.92S176,311,176,311Z" style="fill:#FFC727"></path><g style="opacity:0.4"><path d="M176,311c-.41-.24-25.54,11.43-25.54,11.43s37,77.05,37.47,77.18,26.42-10,26.36-10.92S176,311,176,311Z" style="fill:#fff"></path></g></g><g id="freepik--Pot--inject-382"><polygon points="216.32 459.08 214.57 458.13 220.9 446.49 319.54 446.49 325.87 458.13 324.11 459.08 318.35 448.49 222.09 448.49 216.32 459.08" style="fill:#263238"></polygon><polygon points="306.7 458.95 302.81 448.49 237.63 448.49 233.74 458.95 231.86 458.26 236.23 446.49 304.2 446.49 308.57 458.26 306.7 458.95" style="fill:#263238"></polygon><polygon points="440.03 459.08 434.26 448.49 338 448.49 332.24 459.08 330.48 458.13 336.81 446.49 435.45 446.49 441.78 458.13 440.03 459.08" style="fill:#263238"></polygon><polygon points="422.62 458.95 418.73 448.49 353.54 448.49 349.65 458.95 347.78 458.26 352.15 446.49 420.12 446.49 424.49 458.26 422.62 458.95" style="fill:#263238"></polygon><rect x="209.55" y="456.03" width="237.86" height="6.2" style="fill:#455a64"></rect><g style="opacity:0.5"><path d="M278.2,213.3c2.71,9.76-1,19.78-6.91,27.6-3.43,4.58-8.87,7.89-11.61,12.91-2.59,4.72-1.75,10.53.78,15.08C266.07,279,278.91,282.65,289,286.5c15.51,5.92,36.33,16.55,34,36.55-1.08,9.34-7.28,17.79-13.84,24.16-7.32,7.1-16.17,12.44-25.37,16.78-10.66,5-23.44,8.5-26.12,21.68-2.4,11.75,1,18.2,8.41,26.77,0,0-2.48,1.84-2.81,1.65-4.92-2.85-12.52-9.51-16.42-13.57-8.37-8.19-13.81-18.21-8.77-30.45,3-7.18,8.56-12.79,12.64-19.29,5.3-8.41,6-17.31-.69-25.33-6.87-8.28-17.27-12.13-25.47-18.85-7.72-6.33-11.46-14.7-10.8-24.7A44.17,44.17,0,0,1,223,258.09c6-7.81,14.24-12.18,23.09-16.11,10-4.46,21.89-10.09,24.26-22,2.32-11.62-4.82-22.27-11.44-31.07-.24-.3.22-.71.49-.44C266.93,195.53,275.33,202.94,278.2,213.3Z" style="fill:#ebebeb"></path></g><path d="M347.39,384.36s-4.26,62.4-24.17,62.4H217.78c-19.91,0-24.17-62.4-24.17-62.4Z" style="fill:#37474f"></path><rect x="208.96" y="397.01" width="59.49" height="3.93" style="fill:#c7c7c7"></rect><rect x="212.54" y="393.05" width="39.51" height="11.85" rx="2.05" style="fill:#FFC727"></rect><g style="opacity:0.2"><rect x="212.54" y="393.05" width="39.51" height="11.85" rx="2.05"></rect></g></g><g id="freepik--Spices--inject-382"><path d="M133.28,414.06v42.72c0,3.05-1.14,5.55-2.53,5.55l-16.44,0H97.85c-1.39,0-2.52-2.47-2.52-5.52V414.06c0-3.06,1.13-5.53,2.52-5.53h1.52v-4h14.94v0l14.92,0v4h1.52C132.14,408.53,133.28,411,133.28,414.06Z" style="fill:#FFC727"></path><rect x="98.3" y="397.96" width="31.97" height="7.19" style="fill:#37474f"></rect><rect x="95.33" y="423.11" width="37.94" height="26.99" style="fill:#ebebeb"></rect><path d="M91.12,454.8c0,5.6-2.1,7.53-3.18,7.53l-9.4,0H69.71c-1.07,0-3.18-1.92-3.19-7.52,0-6.65,4.75-10.63,4.74-14.26,0-2.37-2.29-9.72-1.3-9.72l17.65,0c1,0-1.28,7.35-1.28,9.72C86.33,444.19,91.11,448.16,91.12,454.8Z" style="fill:#c7c7c7"></path><path d="M71.33,425.91H86.23a2.15,2.15,0,0,1,2.15,2.15v4.37a.15.15,0,0,1-.15.15H69.33a.15.15,0,0,1-.15-.15v-4.37a2.15,2.15,0,0,1,2.15-2.15Z" transform="translate(-0.63 0.12) rotate(-0.08)" style="fill:#37474f"></path></g></svg>
